<?xml version="1.0" encoding="UTF-8"?>
<svg xmlns="http://www.w3.org/2000/svg" xmlns:xlink="http://www.w3.org/1999/xlink" width="300px" height="293px" viewBox="0 0 225 220" version="1.1">
<g id="surface1">
<path style=" stroke:none;fill-rule:evenodd;fill:rgb(78.039216%,85.882353%,98.823529%);fill-opacity:1;" d="M 112.191406 0 C 165.183594 0 208.136719 31.054688 208.136719 69.359375 L 208.136719 150.640625 C 208.136719 188.945312 165.183594 220 112.191406 220 C 59.203125 220 16.25 188.945312 16.25 150.640625 L 16.25 69.359375 C 16.25 31.054688 59.203125 0 112.191406 0 Z M 112.191406 0 "/>
<path style=" stroke:none;fill-rule:evenodd;fill:rgb(1.176471%,14.117647%,27.843137%);fill-opacity:1;" d="M 224.324219 95.941406 L 224.324219 145.566406 C 224.324219 149.515625 221.148438 152.710938 217.230469 152.710938 L 208.136719 152.710938 L 208.136719 88.800781 L 217.230469 88.800781 C 221.148438 88.800781 224.324219 91.992188 224.324219 95.941406 Z M 224.324219 95.941406 "/>
<path style=" stroke:none;fill-rule:evenodd;fill:rgb(1.176471%,14.117647%,27.843137%);fill-opacity:1;" d="M 0.675781 145.707031 L 0.675781 95.800781 C 0.675781 91.9375 3.792969 88.800781 7.636719 88.800781 L 16.550781 88.800781 L 16.550781 152.710938 L 7.636719 152.710938 C 3.792969 152.710938 0.675781 149.570312 0.675781 145.707031 Z M 0.675781 145.707031 "/>
<path style=" stroke:none;fill-rule:evenodd;fill:rgb(1.176471%,14.117647%,27.843137%);fill-opacity:1;" d="M 112.191406 0 C 142.007812 0 168.640625 9.828125 186.242188 25.25 L 189.820312 28.710938 L 189.820312 130.261719 C 189.820312 140.253906 187.648438 149.769531 183.722656 158.433594 L 182.105469 161.5625 L 181.789062 162.3125 L 180.621094 164.425781 L 180.453125 164.761719 L 180.378906 164.878906 L 178.613281 168.082031 C 166.980469 186.792969 145.3125 200.042969 119.921875 202.296875 L 112.203125 202.644531 L 112.183594 202.644531 L 104.472656 202.296875 C 79.082031 200.042969 57.40625 186.792969 45.777344 168.082031 L 44.007812 164.878906 L 43.9375 164.761719 L 43.765625 164.425781 L 42.597656 162.3125 L 42.285156 161.566406 L 40.667969 158.433594 C 36.738281 149.769531 34.574219 140.253906 34.574219 130.261719 L 34.574219 28.710938 L 38.144531 25.25 C 55.746094 9.828125 82.386719 0 112.191406 0 Z M 112.191406 0 "/>
<path style=" stroke:none;fill-rule:evenodd;fill:rgb(27.45098%,70.980392%,98.039216%);fill-opacity:1;" d="M 59.144531 102.621094 C 59.144531 93.886719 66.152344 86.800781 74.792969 86.800781 C 83.4375 86.800781 90.4375 93.886719 90.4375 102.621094 C 90.4375 111.367188 83.4375 118.449219 74.792969 118.449219 C 66.152344 118.449219 59.144531 111.367188 59.144531 102.621094 Z M 59.144531 102.621094 "/>
<path style=" stroke:none;fill-rule:evenodd;fill:rgb(27.45098%,70.980392%,98.039216%);fill-opacity:1;" d="M 135.320312 102.621094 C 135.320312 93.886719 142.328125 86.800781 150.96875 86.800781 C 159.613281 86.800781 166.613281 93.886719 166.613281 102.621094 C 166.613281 111.367188 159.613281 118.449219 150.96875 118.449219 C 142.328125 118.449219 135.320312 111.367188 135.320312 102.621094 Z M 135.320312 102.621094 "/>
<path style=" stroke:none;fill-rule:evenodd;fill:rgb(100%,100%,100%);fill-opacity:1;" d="M 161.582031 144.71875 C 161.582031 165.339844 139.5 182.054688 112.273438 182.054688 C 85.300781 182.054688 63.332031 165.644531 62.96875 145.230469 L 112.273438 144.71875 Z M 161.582031 144.71875 "/>
</g>
</svg>
