<?xml version="1.0" encoding="UTF-8"?>
<svg xmlns="http://www.w3.org/2000/svg" xmlns:xlink="http://www.w3.org/1999/xlink" width="300px" height="293px" viewBox="0 0 225 220" version="1.1">
<g id="surface1">
<path style=" stroke:none;fill-rule:evenodd;fill:rgb(78.039216%,85.882353%,98.823529%);fill-opacity:1;" d="M 112.191406 0 C 165.421875 0 208.574219 31.054688 208.574219 69.359375 L 208.574219 150.640625 C 208.574219 188.945312 165.421875 220 112.191406 220 C 58.960938 220 15.8125 188.945312 15.8125 150.640625 L 15.8125 69.359375 C 15.8125 31.054688 58.960938 0 112.191406 0 Z M 112.191406 0 "/>
<path style=" stroke:none;fill-rule:evenodd;fill:rgb(1.176471%,14.117647%,27.843137%);fill-opacity:1;" d="M 224.832031 95.9375 L 224.832031 145.570312 C 224.832031 149.511719 221.640625 152.710938 217.707031 152.710938 L 208.574219 152.710938 L 208.574219 88.800781 L 217.707031 88.800781 C 221.640625 88.800781 224.832031 91.992188 224.832031 95.9375 Z M 224.832031 95.9375 "/>
<path style=" stroke:none;fill-rule:evenodd;fill:rgb(1.176471%,14.117647%,27.843137%);fill-opacity:1;" d="M 0.167969 145.707031 L 0.167969 95.800781 C 0.167969 91.933594 3.296875 88.800781 7.160156 88.800781 L 16.117188 88.800781 L 16.117188 152.710938 L 7.160156 152.710938 C 3.296875 152.710938 0.167969 149.574219 0.167969 145.707031 Z M 0.167969 145.707031 "/>
<path style=" stroke:none;fill-rule:evenodd;fill:rgb(1.176471%,14.117647%,27.843137%);fill-opacity:1;" d="M 112.191406 0 C 142.140625 0 168.898438 9.828125 186.578125 25.25 L 190.171875 28.710938 L 190.171875 130.261719 C 190.171875 140.253906 187.992188 149.773438 184.046875 158.433594 L 182.421875 161.5625 L 182.109375 162.308594 L 180.933594 164.429688 L 180.761719 164.761719 L 180.6875 164.875 L 178.914062 168.078125 C 167.230469 186.792969 145.460938 200.042969 119.953125 202.296875 L 112.199219 202.640625 L 112.183594 202.640625 L 104.433594 202.296875 C 78.925781 200.042969 57.15625 186.792969 45.472656 168.078125 L 43.699219 164.875 L 43.625 164.761719 L 43.449219 164.425781 L 42.277344 162.308594 L 41.964844 161.566406 L 40.339844 158.433594 C 36.394531 149.773438 34.214844 140.253906 34.214844 130.261719 L 34.214844 28.710938 L 37.808594 25.25 C 55.488281 9.828125 82.246094 0 112.191406 0 Z M 112.191406 0 "/>
<path style=" stroke:none;fill-rule:evenodd;fill:rgb(27.45098%,70.980392%,98.039216%);fill-opacity:1;" d="M 58.902344 102.625 C 58.902344 93.886719 65.941406 86.800781 74.621094 86.800781 C 83.304688 86.800781 90.339844 93.886719 90.339844 102.625 C 90.339844 111.367188 83.304688 118.449219 74.621094 118.449219 C 65.941406 118.449219 58.902344 111.367188 58.902344 102.625 Z M 58.902344 102.625 "/>
<path style=" stroke:none;fill-rule:evenodd;fill:rgb(27.45098%,70.980392%,98.039216%);fill-opacity:1;" d="M 135.425781 102.625 C 135.425781 93.886719 142.464844 86.800781 151.144531 86.800781 C 159.828125 86.800781 166.863281 93.886719 166.863281 102.625 C 166.863281 111.367188 159.828125 118.449219 151.144531 118.449219 C 142.464844 118.449219 135.425781 111.367188 135.425781 102.625 Z M 135.425781 102.625 "/>
<path style=" stroke:none;fill-rule:evenodd;fill:rgb(100%,100%,100%);fill-opacity:1;" d="M 161.804688 144.71875 C 161.804688 165.339844 139.625 182.054688 112.269531 182.054688 C 85.175781 182.054688 63.109375 165.644531 62.742188 145.226562 L 112.269531 144.71875 Z M 161.804688 144.71875 "/>
</g>
</svg>
