<svg width="1400" height="1400" xmlns="http://www.w3.org/2000/svg" xmlns:xlink="http://www.w3.org/1999/xlink" xml:space="preserve" overflow="hidden"><defs><clipPath id="clip0"><rect x="1466" y="597" width="1468" height="1467"/></clipPath><clipPath id="clip1"><rect x="1558" y="597" width="1284" height="1281"/></clipPath><clipPath id="clip2"><rect x="1558" y="597" width="1284" height="1281"/></clipPath><clipPath id="clip3"><rect x="1558" y="597" width="1284" height="1281"/></clipPath></defs><g clip-path="url(#clip0)" transform="translate(-1466 -597)"><path d="M1466 1330.5C1466 925.399 1794.62 597 2200 597 2605.38 597 2934 925.399 2934 1330.5 2934 1735.6 2605.38 2064 2200 2064 1794.62 2064 1466 1735.6 1466 1330.5Z" fill="#E87109" fill-rule="evenodd"/><g clip-path="url(#clip1)"><g clip-path="url(#clip2)"><g clip-path="url(#clip3)"><path d="M974.014 795.287 974.014 673.699C973.984 648.002 953.155 627.179 927.457 627.156L867.264 627.156 867.264 560.437 716.026 560.437 716.026 520.406 755.323 520.406C795.022 520.369 827.195 488.196 827.232 448.497L827.232 298.753C827.195 259.054 795.022 226.881 755.323 226.844L653.764 226.844 653.764 184.918C682.306 177.548 699.47 148.436 692.1 119.894 684.73 91.3517 655.618 74.1879 627.076 81.5574 598.534 88.927 581.37 118.039 588.74 146.581 593.594 165.382 608.275 180.063 627.076 184.918L627.076 226.844 525.503 226.844C485.81 226.888 453.645 259.06 453.607 298.753L453.607 448.497C453.645 488.19 485.81 520.362 525.503 520.406L569.244 520.406 569.244 560.437 413.576 560.437 413.576 640.406 328.897 640.406C317.939 640.4 309.056 631.522 309.041 620.564L309.041 498.963C348.894 491.57 375.209 453.271 367.816 413.419 365.381 400.292 359.413 388.08 350.554 378.095L330.618 395.842C347.743 415.131 345.99 444.648 326.702 461.774 307.415 478.899 277.896 477.146 260.77 457.859 245.159 440.276 245.054 413.83 260.523 396.123L240.428 378.549C213.779 409.09 216.933 455.45 247.474 482.099 257.381 490.743 269.426 496.568 282.354 498.963L282.354 620.564C282.383 646.255 303.206 667.071 328.897 667.094L413.576 667.094 413.576 947.74C351.082 951.459 303.436 1005.13 307.154 1067.63 310.716 1127.49 360.283 1174.22 420.248 1174.25L860.592 1174.25C923.197 1174.22 973.92 1123.44 973.885 1060.83 973.853 1000.87 927.124 951.301 867.264 947.74L867.264 653.844 927.457 653.844C938.419 653.858 947.303 662.737 947.326 673.699L947.326 795.287C907.474 802.678 881.158 840.978 888.55 880.832 890.983 893.951 896.947 906.158 905.8 916.142L925.736 898.395C908.615 879.104 910.373 849.584 929.664 832.463 948.955 815.342 978.474 817.1 995.596 836.391 1011.2 853.977 1011.3 880.424 995.831 898.128L1015.93 915.688C1042.57 885.143 1039.41 838.783 1008.86 812.139 998.964 803.504 986.929 797.685 974.014 795.287ZM613.732 133.437C613.732 118.698 625.68 106.75 640.42 106.75 655.159 106.75 667.107 118.698 667.107 133.437 667.107 148.177 655.159 160.125 640.42 160.125 625.68 160.133 613.727 148.19 613.719 133.451 613.719 133.447 613.719 133.441 613.719 133.437ZM440.264 788.215 549.349 788.215 592.823 695.81 633.668 852.305 688.791 738.883 723.485 821.214 750.386 793.713C753.947 790.448 758.531 788.518 763.356 788.255L840.536 788.255 840.536 947.406 440.224 947.406ZM525.503 493.719C500.545 493.681 480.324 473.455 480.295 448.497L480.295 298.753C480.324 273.795 500.545 253.569 525.503 253.531L755.323 253.531C780.284 253.569 800.507 273.792 800.545 298.753L800.545 448.497C800.507 473.458 780.284 493.681 755.323 493.719L525.503 493.719ZM595.932 520.406 689.338 520.406 689.338 560.437 595.932 560.437ZM569.244 587.125 840.576 587.125 840.576 761.528 763.396 761.528C751.954 761.763 740.986 766.145 732.532 773.857L690.499 674.233 641.247 775.645 600.042 617.816 532.416 761.528 440.264 761.528 440.264 587.125ZM947.326 1060.83C947.267 1108.71 908.469 1147.5 860.592 1147.56L420.248 1147.56C372.345 1147.56 333.514 1108.73 333.514 1060.83 333.514 1012.93 372.345 974.094 420.248 974.094L860.592 974.094C908.469 974.152 947.267 1012.95 947.326 1060.83Z" stroke="#FFFFFF" stroke-width="13.3437" fill="#FFFFFF" transform="matrix(1.00078 0 0 1 1559 597)"/><path d="M764.503 373.625C764.503 341.936 738.814 316.247 707.125 316.247 675.436 316.247 649.747 341.936 649.747 373.625 649.747 405.314 675.436 431.003 707.125 431.003 738.814 431.003 764.503 405.314 764.503 373.625ZM707.125 413.656C685.016 413.656 667.094 395.734 667.094 373.625 667.094 351.516 685.016 333.594 707.125 333.594 729.234 333.594 747.156 351.516 747.156 373.625 747.156 395.734 729.234 413.656 707.125 413.656Z" stroke="#FFFFFF" stroke-width="13.3437" fill="#FFFFFF" transform="matrix(1.00078 0 0 1 1559 597)"/><path d="M727.141 373.625C727.141 384.679 718.18 393.641 707.125 393.641 696.071 393.641 687.11 384.679 687.11 373.625 687.11 362.571 696.071 353.609 707.125 353.609 718.18 353.609 727.141 362.571 727.141 373.625Z" stroke="#FFFFFF" stroke-width="13.3437" fill="#FFFFFF" transform="matrix(1.00078 0 0 1 1559 597)"/><path d="M573.688 316.247C541.999 316.247 516.31 341.936 516.31 373.625 516.31 405.314 541.999 431.003 573.688 431.003 605.377 431.003 631.066 405.314 631.066 373.625 631.066 341.936 605.377 316.247 573.688 316.247ZM573.688 413.656C551.579 413.656 533.656 395.734 533.656 373.625 533.656 351.516 551.579 333.594 573.688 333.594 595.797 333.594 613.719 351.516 613.719 373.625 613.719 395.734 595.797 413.656 573.688 413.656Z" stroke="#FFFFFF" stroke-width="13.3437" fill="#FFFFFF" transform="matrix(1.00078 0 0 1 1559 597)"/><path d="M593.703 373.625C593.703 384.679 584.742 393.641 573.688 393.641 562.633 393.641 553.672 384.679 553.672 373.625 553.672 362.571 562.633 353.609 573.688 353.609 584.742 353.609 593.703 362.571 593.703 373.625Z" stroke="#FFFFFF" stroke-width="13.3437" fill="#FFFFFF" transform="matrix(1.00078 0 0 1 1559 597)"/><path d="M667.107 1060.83C667.107 1075.57 655.159 1087.52 640.42 1087.52 625.681 1087.52 613.732 1075.57 613.732 1060.83 613.732 1046.09 625.681 1034.14 640.42 1034.14 655.159 1034.14 667.107 1046.09 667.107 1060.83Z" stroke="#FFFFFF" stroke-width="13.3437" fill="#FFFFFF" transform="matrix(1.00078 0 0 1 1559 597)"/><path d="M473.623 1060.83C473.623 1075.57 461.675 1087.52 446.935 1087.52 432.196 1087.52 420.248 1075.57 420.248 1060.83 420.248 1046.09 432.196 1034.14 446.935 1034.14 461.675 1034.14 473.623 1046.09 473.623 1060.83Z" stroke="#FFFFFF" stroke-width="13.3437" fill="#FFFFFF" transform="matrix(1.00078 0 0 1 1559 597)"/><path d="M860.592 1060.83C860.592 1075.57 848.643 1087.52 833.904 1087.52 819.165 1087.52 807.217 1075.57 807.217 1060.83 807.217 1046.09 819.165 1034.14 833.904 1034.14 848.643 1034.14 860.592 1046.09 860.592 1060.83Z" stroke="#FFFFFF" stroke-width="13.3437" fill="#FFFFFF" transform="matrix(1.00078 0 0 1 1559 597)"/></g></g></g></g></svg>